<svg width="1200" height="475" viewBox="0 0 1200 475" fill="none" xmlns="http://www.w3.org/2000/svg" role="img" aria-labelledby="title desc">
  <title id="title">Steel - Smart Stridsledning banner</title>
  <desc id="desc">Minimal high-contrast banner with steel gradients, diagonal beams, and a centered monogram.</desc>
  <defs>
    <linearGradient id="bg" x1="0" y1="0" x2="1200" y2="475" gradientUnits="userSpaceOnUse">
      <stop offset="0" stop-color="#06070a"/>
      <stop offset="0.55" stop-color="#0d1117"/>
      <stop offset="1" stop-color="#131923"/>
    </linearGradient>
    <linearGradient id="steel" x1="160" y1="92" x2="940" y2="382" gradientUnits="userSpaceOnUse">
      <stop offset="0" stop-color="#f8fafc"/>
      <stop offset="0.45" stop-color="#9aa7b3"/>
      <stop offset="1" stop-color="#586676"/>
    </linearGradient>
    <linearGradient id="accent" x1="180" y1="0" x2="1020" y2="475" gradientUnits="userSpaceOnUse">
      <stop offset="0" stop-color="#60a5fa" stop-opacity="0.0"/>
      <stop offset="0.5" stop-color="#38bdf8" stop-opacity="0.95"/>
      <stop offset="1" stop-color="#14b8a6" stop-opacity="0.25"/>
    </linearGradient>
    <radialGradient id="glow" cx="0" cy="0" r="1" gradientUnits="userSpaceOnUse" gradientTransform="translate(780 188) rotate(90) scale(210 320)">
      <stop offset="0" stop-color="#38bdf8" stop-opacity="0.28"/>
      <stop offset="0.6" stop-color="#0ea5e9" stop-opacity="0.06"/>
      <stop offset="1" stop-color="#0f172a" stop-opacity="0"/>
    </radialGradient>
    <filter id="shadow" x="-50%" y="-50%" width="200%" height="200%">
      <feDropShadow dx="0" dy="10" stdDeviation="18" flood-color="#000000" flood-opacity="0.45"/>
    </filter>
  </defs>

  <rect width="1200" height="475" rx="32" fill="url(#bg)"/>
  <rect x="0.5" y="0.5" width="1199" height="474" rx="31.5" stroke="rgba(255,255,255,0.06)"/>
  <path d="M0 365C150 306 260 302 410 336C570 373 700 365 848 300C971 246 1080 234 1200 272V475H0V365Z" fill="#0f172a" fill-opacity="0.55"/>
  <path d="M70 102L390 70" stroke="url(#accent)" stroke-width="2" stroke-linecap="round" opacity="0.65"/>
  <path d="M70 126L390 94" stroke="rgba(255,255,255,0.08)" stroke-width="1.5" stroke-linecap="round"/>
  <path d="M770 74L1095 206" stroke="rgba(255,255,255,0.08)" stroke-width="2" stroke-linecap="round"/>
  <path d="M760 104L1102 248" stroke="url(#accent)" stroke-width="2.5" stroke-linecap="round" opacity="0.5"/>
  <circle cx="820" cy="206" r="150" fill="url(#glow)"/>
  <g opacity="0.26">
    <path d="M790 73L905 140L905 275L790 342L675 275V140L790 73Z" stroke="rgba(255,255,255,0.5)" stroke-width="1.4" fill="none"/>
    <path d="M790 106L877 154V251L790 299L703 251V154L790 106Z" stroke="rgba(255,255,255,0.35)" stroke-width="1.2" fill="none"/>
  </g>

  <g filter="url(#shadow)">
    <rect x="86" y="86" width="540" height="302" rx="22" fill="rgba(8,12,18,0.48)" stroke="rgba(255,255,255,0.08)"/>
    <path d="M124 126H274" stroke="url(#accent)" stroke-width="3" stroke-linecap="round"/>
    <text x="124" y="214" fill="url(#steel)" font-family="Inter, ui-sans-serif, system-ui, -apple-system, BlinkMacSystemFont, Segoe UI, sans-serif" font-size="84" font-weight="700" letter-spacing="10">STEEL</text>
    <text x="128" y="258" fill="rgba(255,255,255,0.88)" font-family="Inter, ui-sans-serif, system-ui, -apple-system, BlinkMacSystemFont, Segoe UI, sans-serif" font-size="22" font-weight="500" letter-spacing="6">SMART STRIDSLEDNING</text>
    <text x="128" y="292" fill="rgba(226,232,240,0.72)" font-family="Inter, ui-sans-serif, system-ui, -apple-system, BlinkMacSystemFont, Segoe UI, sans-serif" font-size="14" font-weight="500" letter-spacing="2.2">DEPLOYMENT-READY COMMAND SURFACE</text>
    <g transform="translate(124 326)">
      <rect width="112" height="28" rx="14" fill="rgba(56,189,248,0.11)" stroke="rgba(56,189,248,0.30)"/>
      <text x="18" y="19" fill="#bae6fd" font-family="Inter, ui-sans-serif, system-ui, -apple-system, BlinkMacSystemFont, Segoe UI, sans-serif" font-size="11" font-weight="600" letter-spacing="2">CLOUD RUN</text>
      <rect x="124" width="126" height="28" rx="14" fill="rgba(255,255,255,0.04)" stroke="rgba(255,255,255,0.10)"/>
      <text x="142" y="19" fill="rgba(226,232,240,0.88)" font-family="Inter, ui-sans-serif, system-ui, -apple-system, BlinkMacSystemFont, Segoe UI, sans-serif" font-size="11" font-weight="600" letter-spacing="2">STOCKHOLM</text>
      <rect x="258" width="128" height="28" rx="14" fill="rgba(20,184,166,0.10)" stroke="rgba(20,184,166,0.28)"/>
      <text x="276" y="19" fill="#99f6e4" font-family="Inter, ui-sans-serif, system-ui, -apple-system, BlinkMacSystemFont, Segoe UI, sans-serif" font-size="11" font-weight="600" letter-spacing="2">SSR / GCP</text>
    </g>
  </g>

  <g opacity="0.44">
    <path d="M696 350H1095" stroke="rgba(255,255,255,0.12)" stroke-width="1"/>
    <path d="M714 330H1068" stroke="rgba(255,255,255,0.08)" stroke-width="1"/>
    <path d="M734 310H1040" stroke="rgba(255,255,255,0.06)" stroke-width="1"/>
  </g>
</svg>
